<?xml version="1.0" encoding="utf-8"?><!--Generator: Adobe Illustrator 21.0.0, SVG Export Plug-In . SVG Version: 6.00 Build 0)--><svg version="1.1" id="圖層_1" xmlns="http://www.w3.org/2000/svg" xmlns:xlink="http://www.w3.org/1999/xlink" x="0px" y="0px" viewBox="0 0 100 100" enable-background="new 0 0 100 100" xml:space="preserve"><path fill="#F5E169" stroke="#333435" stroke-width="3.5" stroke-miterlimit="10" d="M51.4,23.6l6.8,13.8c0.2,0.5,0.7,0.8,1.2,0.8 l15.3,2.2c1.3,0.2,1.8,1.8,0.9,2.6l-11,10.8c-0.4,0.4-0.5,0.9-0.4,1.4l2.6,15.2c0.2,1.3-1.1,2.2-2.3,1.6L50.7,65 c-0.5-0.2-1-0.2-1.4,0l-13.6,7.2c-1.1,0.6-2.5-0.4-2.3-1.6L36,55.3c0.1-0.5-0.1-1-0.4-1.4l-11-10.8c-0.9-0.9-0.4-2.5,0.9-2.6 l15.3-2.2c0.5-0.1,0.9-0.4,1.2-0.8l6.8-13.8C49.2,22.5,50.8,22.5,51.4,23.6z"/><g><line fill="none" stroke="#333435" stroke-width="3.5" stroke-linecap="round" stroke-linejoin="round" stroke-miterlimit="10" x1="50" y1="4.7" x2="50" y2="14.7"/><line fill="none" stroke="#333435" stroke-width="3.5" stroke-linecap="round" stroke-linejoin="round" stroke-miterlimit="10" x1="18" y1="18" x2="25" y2="25"/><line fill="none" stroke="#333435" stroke-width="3.5" stroke-linecap="round" stroke-linejoin="round" stroke-miterlimit="10" x1="4.7" y1="50" x2="14.7" y2="50"/><line fill="none" stroke="#333435" stroke-width="3.5" stroke-linecap="round" stroke-linejoin="round" stroke-miterlimit="10" x1="18" y1="82" x2="25" y2="75"/><line fill="none" stroke="#333435" stroke-width="3.5" stroke-linecap="round" stroke-linejoin="round" stroke-miterlimit="10" x1="50" y1="95.3" x2="50" y2="85.3"/><line fill="none" stroke="#333435" stroke-width="3.5" stroke-linecap="round" stroke-linejoin="round" stroke-miterlimit="10" x1="82" y1="82" x2="75" y2="75"/><line fill="none" stroke="#333435" stroke-width="3.5" stroke-linecap="round" stroke-linejoin="round" stroke-miterlimit="10" x1="95.3" y1="50" x2="85.3" y2="50"/><line fill="none" stroke="#333435" stroke-width="3.5" stroke-linecap="round" stroke-linejoin="round" stroke-miterlimit="10" x1="82" y1="18" x2="75" y2="25"/></g><metadata xmlns:d="https://loading.io/stock/">
<d:name>star</d:name>
<d:tags>star,supernova,blazer,quasar,bright</d:tags>
<d:license>by</d:license>
<d:slug>qnqjdq</d:slug>
</metadata></svg>